<svg xmlns="http://www.w3.org/2000/svg" viewBox="0 0 512 512"><path d="M 64 32 c -35.3 0 -64 28.7 -64 64 v 320 c 0 35.3 28.7 64 64 64 h 384 c 35.3 0 64 -28.7 64 -64 v -320 c 0 -35.3 -28.7 -64 -64 -64 h -384 Z M 158 70 v 96 h -120 v -96 h 120 Z M 196 70 h 120 v 96 h -120 v -96 Z M 474 70 v 96 h -120 v -96 h 120 Z M 20 178 h 472 v 156 h -472 v -156 Z M 30 188 h 141 v 136 h -141 v -136 Z M 326.5 188 v 136 h -141 v -136 h 141 Z M 341 188 h 141 v 136 h -141 v -136 Z M 158 346 v 96 h -120 v -96 h 120 Z M 196 346 h 120 v 96 h -120 v -96 Z M 474 346 v 96 h -120 v -96 h 120 Z"/></svg>