<svg xmlns="http://www.w3.org/2000/svg" viewBox="16 64 496 400"><path d="M 48 64 c -17.7 0 -32 14.3 -32 32 s 14.3 32 32 32 H 480 c 17.7 0 32 -14.3 32 -32 s -14.3 -32 -32 -32 H 192 z M 48 176 c -17.7 0 -32 14.3 -32 32 s 14.3 32 32 32 H 204 c 17.7 0 32 -14.3 32 -32 s -14.3 -32 -32 -32 H 204 z m 0 112 c -17.7 0 -32 14.3 -32 32 s 14.3 32 32 32 H 204 c 17.7 0 32 -14.3 32 -32 s -14.3 -32 -32 -32 H 204 z M 48 400 c -17.7 0 -32 14.3 -32 32 s 14.3 32 32 32 H 480 c 17.7 0 32 -14.3 32 -32 s -14.3 -32 -32 -32 H 192 z M 270 290 v 48 c 0 13.3 10.7 24 24 24 h 192 c 13.3 0 24 -10.7 24 -24 v -154 c 0 -13.3 -10.7 -24 -24 -24 h -192 c -13.3 0 -24 10.7 -24 24 z"/></svg>