<svg xmlns="http://www.w3.org/2000/svg" viewBox="0 0 576 512"><path d="M 64 80 c -8.8 0 -16 7.2 -16 16 V 416 c 0 8.8 7.2 16 16 16 H 512 c 8.8 0 16 -7.2 16 -16 V 96 c 0 -8.8 -7.2 -16 -16 -16 H 64 z M 0 96 C 0 60.7 28.7 32 64 32 H 512 c 35.3 0 64 28.7 64 64 V 416 c 0 35.3 -28.7 64 -64 64 H 64 c -35.3 0 -64 -28.7 -64 -64 V 96 z M 96 160 c 0 -13.3 10.7 -24 24 -24 H 448 c 13.3 0 24 10.7 24 24 s -10.7 24 -24 24 H 120 c -13.3 0 -24 -10.7 -24 -24 z M 96 256 c 0 -13.3 10.7 -24 24 -24 H 210 c 13.3 0 24 10.7 24 24 s -10.7 24 -24 24 H 120 c -13.3 0 -24 -10.7 -24 -24 z M 260 256 c 0 -13.3 10.7 -24 24 -24 H 448 c 13.3 0 24 10.7 24 24 s -10.7 24 -24 24 H 284 c -13.3 0 -24 -10.7 -24 -24 z M 96 352 c 0 -13.3 10.7 -24 24 -24 H 284 c 13.3 0 24 10.7 24 24 s -10.7 24 -24 24 H 120 c -13.3 0 -24 -10.7 -24 -24 z M 334 352 c 0 -13.3 10.7 -24 24 -24 H 448 c 13.3 0 24 10.7 24 24 s -10.7 24 -24 24 H 358 c -13.3 0 -24 -10.7 -24 -24 z"/></svg>