<svg xmlns="http://www.w3.org/2000/svg" viewBox="1 2 14 14"><path d="M 5 13.8 a 0.6 0.6 90 0 1 0.6 -0.6 h 8.8 a 0.6 0.6 90 0 1 0 1.2 h -8.8 a 0.6 0.6 90 0 1 -0.6 -0.6 z m 0 -4.8 a 0.6 0.6 90 0 1 0.6 -0.6 h 8.8 a 0.6 0.6 90 0 1 0 1.2 h -8.8 a 0.6 0.6 90 0 1 -0.6 -0.6 z m 0 -4.8 a 0.6 0.6 90 0 1 0.6 -0.6 h 8.8 a 0.6 0.6 90 0 1 0 1.2 h -8.8 a 0.6 0.6 90 0 1 -0.6 -0.6 z M 2.0556 14.238 v -0.5688 H 2.4 c 0.2604 0 0.4356 -0.1644 0.4356 -0.3804 c 0 -0.222 -0.1896 -0.372 -0.4332 -0.372 c -0.2676 0 -0.4404 0.1824 -0.4476 0.372 h -0.708 c 0.0192 -0.5604 0.4476 -0.9444 1.1832 -0.9444 c 0.7056 -0.0024 1.1448 0.3492 1.1484 0.8436 a 0.714 0.714 90 0 1 -0.5904 0.7128 v 0.0396 a 0.738 0.738 90 0 1 0.6828 0.7572 c 0.0036 0.6396 -0.6024 0.96 -1.2612 0.96 c -0.7872 0 -1.2 -0.444 -1.2096 -0.9528 h 0.6984 c 0.0096 0.2136 0.2232 0.3672 0.5064 0.3708 c 0.3048 0 0.5088 -0.174 0.5064 -0.42 c -0.0024 -0.234 -0.186 -0.4176 -0.4968 -0.4176 h -0.36 z m -0.0048 -5.6388 h -0.7248 v -0.042 c 0 -0.4896 0.354 -1.0128 1.1496 -1.0128 c 0.6996 0 1.152 0.3912 1.152 0.9072 c 0 0.4668 -0.3084 0.7404 -0.5712 1.0176 l -0.6444 0.6864 v 0.036 h 1.2648 V 10.8 H 1.3716 v -0.474 l 1.1484 -1.188 c 0.1656 -0.1704 0.3516 -0.3648 0.3516 -0.6096 c 0 -0.216 -0.1764 -0.384 -0.4104 -0.384 a 0.396 0.396 90 0 0 -0.4104 0.4056 v 0.0492 z M 3.0768 6 h -0.762 V 3.5088 h -0.0372 l -0.7176 0.504 v -0.6804 l 0.7548 -0.5316 h 0.762 V 6 z"/></svg>