<svg xmlns="http://www.w3.org/2000/svg" viewBox="0 0 576 512"><path d="M 576 80 a 48 48 0 1 0 -96 0 a 48 48 0 1 0 96 0 z M 448 208 a 48 48 0 1 0 -96 0 a 48 48 0 1 0 96 0 z M 400 384 a 48 48 0 1 0 0 -96 a 48 48 0 1 0 0 96 z m 48 80 a 48 48 0 1 0 -96 0 a 48 48 0 1 0 96 0 z m 128 0 a 48 48 0 1 0 -96 0 a 48 48 0 1 0 96 0 z M 272 384 a 48 48 0 1 0 0 -96 a 48 48 0 1 0 0 96 z m 48 80 a 48 48 0 1 0 -96 0 a 48 48 0 1 0 96 0 z M 144 512 a 48 48 0 1 0 0 -96 a 48 48 0 1 0 0 96 z M 576 336 a 48 48 0 1 0 -96 0 a 48 48 0 1 0 96 0 z m -48 -80 a 48 48 0 1 0 0 -96 a 48 48 0 1 0 0 96 z"/></svg>