<svg xmlns="http://www.w3.org/2000/svg" viewBox="0 0 16 16"><path d="M14.5 3a.5.5 0 0 1 .5.5v9a.5.5 0 0 1-.5.5h-13a.5.5 0 0 1-.5-.5v-9a.5.5 0 0 1 .5-.5h13zm-13-1A1.5 1.5 0 0 0 0 3.5v9A1.5 1.5 0 0 0 1.5 14h13a1.5 1.5 0 0 0 1.5-1.5v-9A1.5 1.5 0 0 0 14.5 2h-13z"/><path d="M 3 5.5 a 0.5 0.5 0 0 1 0.5 -0.5 h 9 a 0.5 0.5 0 0 1 0 1 h -9 a 0.5 0.5 0 0 1 -0.5 -0.5 z M 3 10.5 a 0.5 0.5 0 0 1 0.5 -0.5 h 9 a 0.5 0.5 0 0 1 0 1 h -9 A 0.5 0.5 0 0 1 3 10.5 z M 3 8 a 0.5 0.5 0 0 1 0.5 -0.5 h 4.5 a 0.5 0.5 0 0 1 0 1 h -4.5 a 0.5 0.5 0 0 1 -0.5 -0.5 z M 9.5 8 a 0.5 0.5 0 0 1 0.5 -0.5 h 2.5 a 0.5 0.5 0 0 1 0 1 h -2.5 a 0.5 0.5 0 0 1 -0.5 -0.5 z"/></svg>