<svg xmlns="http://www.w3.org/2000/svg" viewBox="0 0 512 512"><path d="M 64 32 c -35.3 0 -64 28.7 -64 64 v 320 c 0 35.3 28.7 64 64 64 h 384 c 35.3 0 64 -28.7 64 -64 v -320 c 0 -35.3 -28.7 -64 -64 -64 h -384 Z M 158 70 v 96 h -120 v -96 h 120 Z M 185.5 60 h 141 v 121 h -141 v -121 Z M 474 70 v 96 h -120 v -96 h 120 Z M 175.5 50 h 161 v 412 h -161 v -412 Z M 38 208 h 120 v 96 h -120 v -96 Z M 326.5 195 v 121 h -141 v -121 h 141 Z M 354 208 h 120 v 96 h -120 v -96 Z M 158 346 v 96 h -120 v -96 h 120 Z M 185.5 331 h 141 v 121 h -141 v -121 Z M 474 346 v 96 h -120 v -96 h 120 Z"/></svg>